<svg viewBox="0 0 200 200" xmlns="http://www.w3.org/2000/svg">
  <!-- Background -->
  <rect width="200" height="200" fill="#000000" rx="40"/>
  
  <!-- Outer accent circle -->
  <circle cx="100" cy="100" r="95" fill="none" stroke="#ffffff" stroke-width="2" opacity="0.1"/>
  
  <!-- Main book/education icon -->
  <g transform="translate(100, 100)">
    <!-- Book spine left -->
    <path d="M -25 -35 L -20 -35 L -20 35 L -25 35 Q -35 30 -35 0 Q -35 -30 -25 -35" fill="#ffffff" opacity="0.9"/>
    
    <!-- Book pages -->
    <path d="M -20 -35 L 30 -35 L 30 35 L -20 35 Z" fill="#ffffff" opacity="0.85"/>
    
    <!-- Book right edge highlight -->
    <path d="M 30 -35 L 35 -30 L 35 30 L 30 35 Z" fill="#ffffff" opacity="0.3"/>
    
    <!-- Page lines 1 -->
    <line x1="-15" y1="-25" x2="20" y2="-25" stroke="#000000" stroke-width="2" opacity="0.6"/>
    
    <!-- Page lines 2 -->
    <line x1="-15" y1="-15" x2="25" y2="-15" stroke="#000000" stroke-width="1.5" opacity="0.5"/>
    
    <!-- Page lines 3 -->
    <line x1="-15" y1="-5" x2="25" y2="-5" stroke="#000000" stroke-width="1.5" opacity="0.5"/>
    
    <!-- Page lines 4 -->
    <line x1="-15" y1="5" x2="20" y2="5" stroke="#000000" stroke-width="1.5" opacity="0.5"/>
    
    <!-- Page lines 5 -->
    <line x1="-15" y1="15" x2="25" y2="15" stroke="#000000" stroke-width="1.5" opacity="0.5"/>
    
    <!-- Page lines 6 -->
    <line x1="-15" y1="25" x2="18" y2="25" stroke="#000000" stroke-width="1.5" opacity="0.5"/>
    
    <!-- AI/Tech accent - small chip/circuit element on top right -->
    <g transform="translate(35, -40)">
      <rect x="-8" y="-8" width="16" height="16" fill="none" stroke="#ffffff" stroke-width="1.5" rx="2" opacity="0.7"/>
      <circle cx="-3" cy="-3" r="1.5" fill="#ffffff" opacity="0.7"/>
      <circle cx="3" cy="-3" r="1.5" fill="#ffffff" opacity="0.7"/>
      <circle cx="3" cy="3" r="1.5" fill="#ffffff" opacity="0.7"/>
      <line x1="-5" y1="0" x2="5" y2="0" stroke="#ffffff" stroke-width="1" opacity="0.5"/>
    </g>
    
    <!-- Graduation cap accent on spine -->
    <g transform="translate(-28, -45)">
      <path d="M 0 -5 L -6 0 L 6 0 Z" fill="#ffffff" opacity="0.8"/>
      <rect x="-8" y="0" width="16" height="3" fill="#ffffff" opacity="0.8"/>
    </g>
  </g>
  
  <!-- Corner accent elements -->
  <circle cx="20" cy="20" r="2" fill="#ffffff" opacity="0.5"/>
  <circle cx="180" cy="180" r="2" fill="#ffffff" opacity="0.5"/>
</svg>